<?xml version="1.0" encoding="utf-8"?>
<!-- Generator: Adobe Illustrator 25.4.1, SVG Export Plug-In . SVG Version: 6.00 Build 0)  -->
<svg version="1.1" id="Capa_1" xmlns="http://www.w3.org/2000/svg" xmlns:xlink="http://www.w3.org/1999/xlink" x="0px" y="0px"
	 viewBox="0 0 1080 720" style="enable-background:new 0 0 1080 720;" xml:space="preserve">
<style type="text/css">
	.st0{fill:#861847;}
	.st1{fill:#FFFFFF;}
</style>
<g>
	<path class="st0" d="M902.62,486.88H178.38C108.58,486.88,52,430.3,52,360.5v0c0-69.8,56.58-126.38,126.38-126.38h724.24
		c69.8,0,126.38,56.58,126.38,126.38v0C1029,430.3,972.42,486.88,902.62,486.88z"/>
	<g>
		<g>
			<path class="st1" d="M192.98,402.9l-16.45-91.24h17.23l9.8,61.95l9.12-61.95h18.25l-16.67,91.24H192.98z"/>
			<path class="st1" d="M240.06,402.9v-91.24h41v13.74h-20.84v22.64h15.88v13.97h-15.88v27.26h21.06v13.63H240.06z"/>
			<path class="st1" d="M290.41,402.9v-91.24h25.12c6.16,0,11.49,0.68,16,2.03s8.02,3.77,10.53,7.27c2.52,3.49,3.77,8.43,3.77,14.81
				c0,3.76-0.3,7.1-0.9,10.03c-0.6,2.93-1.71,5.46-3.32,7.6c-1.62,2.14-3.93,3.92-6.93,5.35l12.5,44.16h-20.84l-10.03-40.89h-5.74
				v40.89H290.41z M310.58,350.41h5.63c2.85,0,5.07-0.51,6.65-1.52c1.58-1.01,2.68-2.48,3.32-4.39c0.64-1.92,0.96-4.22,0.96-6.93
				c0-3.9-0.71-6.95-2.14-9.12c-1.43-2.18-4.06-3.27-7.89-3.27h-6.53V350.41z"/>
			<path class="st1" d="M412.74,404.26c-6.98,0-12.45-1.15-16.39-3.44c-3.94-2.29-6.7-5.63-8.28-10.03
				c-1.58-4.39-2.37-9.78-2.37-16.16v-62.97h19.94v66.01c0,1.88,0.15,3.76,0.45,5.63c0.3,1.88,0.96,3.42,1.97,4.62
				c1.01,1.2,2.57,1.8,4.67,1.8c2.18,0,3.75-0.6,4.73-1.8c0.98-1.2,1.59-2.74,1.86-4.62c0.26-1.88,0.39-3.75,0.39-5.63v-66.01h20.05
				v62.97c0,6.38-0.81,11.77-2.42,16.16c-1.62,4.39-4.38,7.74-8.28,10.03C425.17,403.11,419.73,404.26,412.74,404.26z"/>
			<path class="st1" d="M452.62,402.9v-91.24h23.77c3.9,0,7.6,0.3,11.1,0.9c3.49,0.6,6.59,1.75,9.29,3.44
				c2.7,1.69,4.82,4.09,6.36,7.21c1.54,3.12,2.31,7.23,2.31,12.33c0,3.68-0.55,6.78-1.63,9.29c-1.09,2.52-2.63,4.52-4.62,6.03
				c-1.99,1.5-4.38,2.52-7.15,3.04c3.53,0.45,6.49,1.6,8.9,3.44c2.4,1.84,4.22,4.3,5.46,7.38c1.24,3.08,1.86,6.8,1.86,11.15
				c0,4.73-0.62,8.81-1.86,12.22c-1.24,3.42-3.02,6.21-5.35,8.39c-2.33,2.18-5.2,3.79-8.62,4.84c-3.42,1.05-7.34,1.58-11.77,1.58
				H452.62z M472.78,348.16h3.94c3.08,0,5.41-0.47,6.98-1.41c1.58-0.94,2.65-2.31,3.21-4.11c0.56-1.8,0.84-3.98,0.84-6.53
				c0-2.4-0.43-4.41-1.3-6.03c-0.86-1.61-2.14-2.83-3.83-3.66c-1.69-0.83-3.81-1.24-6.36-1.24h-3.49V348.16z M472.78,388.82h4.28
				c4.43,0,7.49-1.13,9.18-3.38c1.69-2.25,2.53-5.56,2.53-9.91c0-3.45-0.38-6.2-1.13-8.22c-0.75-2.03-1.99-3.51-3.72-4.45
				c-1.73-0.94-4.06-1.41-6.98-1.41h-4.17V388.82z"/>
			<path class="st1" d="M518.97,402.9v-91.24h20.16v91.24H518.97z"/>
			<path class="st1" d="M578.89,404.26c-6.91,0-12.37-1.26-16.39-3.77c-4.02-2.52-6.85-6.04-8.5-10.59
				c-1.65-4.54-2.48-9.89-2.48-16.05v-32.89c0-6.31,0.83-11.73,2.48-16.28c1.65-4.54,4.49-8.05,8.5-10.53
				c4.02-2.48,9.48-3.72,16.39-3.72c6.76,0,12.03,1.11,15.83,3.32c3.79,2.22,6.48,5.31,8.05,9.29c1.58,3.98,2.37,8.56,2.37,13.74
				v7.89h-19.71v-9.12c0-1.8-0.09-3.53-0.28-5.18c-0.19-1.65-0.73-3.02-1.63-4.11c-0.9-1.09-2.44-1.63-4.62-1.63
				c-2.1,0-3.66,0.56-4.67,1.69s-1.65,2.53-1.92,4.22c-0.26,1.69-0.39,3.47-0.39,5.35v42.92c0,2.03,0.17,3.89,0.51,5.58
				s1.01,3.04,2.03,4.06c1.01,1.01,2.5,1.52,4.45,1.52c2.1,0,3.6-0.54,4.51-1.63c0.9-1.09,1.46-2.5,1.69-4.22
				c0.23-1.73,0.34-3.49,0.34-5.29v-9.57h19.71v7.88c0,5.18-0.77,9.82-2.31,13.91c-1.54,4.09-4.21,7.32-8,9.69
				C591.04,403.07,585.73,404.26,578.89,404.26z"/>
			<path class="st1" d="M611.79,402.9l17.24-91.24H652l17.01,91.24h-18.59l-3.04-19.26h-13.4l-3.15,19.26H611.79z M635.78,371.59
				h9.69l-4.84-35.6L635.78,371.59z"/>
			<path class="st1" d="M702.92,404.26c-6.91,0-12.37-1.26-16.39-3.77c-4.02-2.52-6.85-6.04-8.5-10.59
				c-1.65-4.54-2.48-9.89-2.48-16.05v-32.89c0-6.31,0.83-11.73,2.48-16.28c1.65-4.54,4.49-8.05,8.5-10.53
				c4.02-2.48,9.48-3.72,16.39-3.72c6.76,0,12.03,1.11,15.83,3.32c3.79,2.22,6.48,5.31,8.05,9.29c1.58,3.98,2.37,8.56,2.37,13.74
				v7.89h-19.71v-9.12c0-1.8-0.09-3.53-0.28-5.18c-0.19-1.65-0.73-3.02-1.63-4.11c-0.9-1.09-2.44-1.63-4.62-1.63
				c-2.1,0-3.66,0.56-4.67,1.69s-1.65,2.53-1.92,4.22c-0.26,1.69-0.39,3.47-0.39,5.35v42.92c0,2.03,0.17,3.89,0.51,5.58
				s1.01,3.04,2.03,4.06c1.01,1.01,2.5,1.52,4.45,1.52c2.1,0,3.6-0.54,4.51-1.63c0.9-1.09,1.46-2.5,1.69-4.22
				c0.23-1.73,0.34-3.49,0.34-5.29v-9.57h19.71v7.88c0,5.18-0.77,9.82-2.31,13.91c-1.54,4.09-4.21,7.32-8,9.69
				C715.06,403.07,709.75,404.26,702.92,404.26z"/>
			<path class="st1" d="M740.31,402.9v-91.24h20.16v91.24H740.31z"/>
			<path class="st1" d="M800.24,404.26c-6.83,0-12.24-1.2-16.22-3.6c-3.98-2.4-6.83-5.86-8.56-10.36
				c-1.73-4.51-2.59-9.87-2.59-16.11v-33.91c0-6.31,0.86-11.68,2.59-16.11c1.73-4.43,4.58-7.83,8.56-10.19
				c3.98-2.37,9.39-3.55,16.22-3.55c6.91,0,12.37,1.18,16.39,3.55c4.02,2.37,6.89,5.76,8.62,10.19c1.73,4.43,2.59,9.8,2.59,16.11
				v33.91c0,6.23-0.86,11.6-2.59,16.11c-1.73,4.51-4.6,7.96-8.62,10.36C812.61,403.05,807.15,404.26,800.24,404.26z M800.24,389.95
				c2.1,0,3.64-0.52,4.62-1.58c0.98-1.05,1.61-2.4,1.92-4.06c0.3-1.65,0.45-3.34,0.45-5.07v-43.93c0-1.8-0.15-3.51-0.45-5.13
				c-0.3-1.61-0.94-2.95-1.92-4c-0.98-1.05-2.52-1.58-4.62-1.58c-1.95,0-3.42,0.53-4.39,1.58c-0.98,1.05-1.62,2.39-1.92,4
				c-0.3,1.62-0.45,3.32-0.45,5.13v43.93c0,1.73,0.13,3.42,0.39,5.07c0.26,1.65,0.86,3,1.8,4.06
				C796.62,389.43,798.14,389.95,800.24,389.95z M794.27,304.45l7.1-22.64h18.7l-14.19,22.64H794.27z"/>
			<path class="st1" d="M840.12,402.9v-91.24h14.19l18.7,43.93v-43.93h16.67v91.24h-13.63l-18.7-47.31v47.31H840.12z"/>
		</g>
	</g>
</g>
</svg>
